<svg width="1920" height="1080" viewBox="0 0 1920 1080" fill="none" xmlns="http://www.w3.org/2000/svg">
<g clip-path="url(#clip0)">
<path d="M-105.488 1023.88C-125.702 1001.96 -124.313 967.793 -102.386 947.579L152.055 713.021C173.982 692.807 208.145 694.196 228.359 716.123L356.898 855.558C377.112 877.485 375.723 911.648 353.796 931.862L99.3554 1166.42C77.4278 1186.63 43.2651 1185.25 23.0509 1163.32L-105.488 1023.88Z" fill="#48BFE3"/>
<path d="M607.297 761.159C587.083 739.231 588.472 705.069 610.399 684.855L864.839 450.297C886.767 430.083 920.93 431.472 941.144 453.399L1069.68 592.834C1089.9 614.762 1088.51 648.924 1066.58 669.138L812.14 903.696C790.213 923.91 756.05 922.521 735.836 900.594L607.297 761.159Z" fill="#48BFE3"/>
<path d="M121.297 395.159C101.083 373.231 102.472 339.069 124.399 318.855L378.839 84.2968C400.767 64.0826 434.93 65.4717 455.144 87.3993L583.683 226.834C603.897 248.762 602.508 282.924 580.58 303.138L326.14 537.696C304.213 557.91 270.05 556.521 249.836 534.594L121.297 395.159Z" fill="#48BFE3"/>
<path d="M-310.703 132.159C-330.917 110.231 -329.528 76.0688 -307.601 55.8546L-53.1605 -178.703C-31.2329 -198.917 2.92978 -197.528 23.144 -175.601L151.683 -36.1661C171.897 -14.2385 170.508 19.9242 148.58 40.1384L-105.86 274.696C-127.787 294.91 -161.95 293.521 -182.164 271.594L-310.703 132.159Z" fill="#48BFE3"/>
<path d="M829.297 88.1591C809.083 66.2315 810.472 32.0688 832.399 11.8546L1086.84 -222.703C1108.77 -242.917 1142.93 -241.528 1163.14 -219.601L1291.68 -80.1661C1311.9 -58.2385 1310.51 -24.0758 1288.58 -3.8616L1034.14 230.696C1012.21 250.91 978.05 249.521 957.836 227.594L829.297 88.1591Z" fill="#48BFE3"/>
<path d="M1338.3 659.159C1318.08 637.231 1319.47 603.069 1341.4 582.855L1595.84 348.297C1617.77 328.083 1651.93 329.472 1672.14 351.399L1800.68 490.834C1820.9 512.762 1819.51 546.924 1797.58 567.138L1543.14 801.696C1521.21 821.91 1487.05 820.521 1466.84 798.594L1338.3 659.159Z" fill="#48BFE3"/>
<path d="M1424.3 88.1591C1404.08 66.2315 1405.47 32.0688 1427.4 11.8546L1681.84 -222.703C1703.77 -242.917 1737.93 -241.528 1758.14 -219.601L1886.68 -80.1661C1906.9 -58.2385 1905.51 -24.0758 1883.58 -3.8616L1629.14 230.696C1607.21 250.91 1573.05 249.521 1552.84 227.594L1424.3 88.1591Z" fill="#48BFE3"/>
<path d="M904.297 1160.16C884.083 1138.23 885.472 1104.07 907.399 1083.85L1161.84 849.297C1183.77 829.083 1217.93 830.472 1238.14 852.399L1366.68 991.834C1386.9 1013.76 1385.51 1047.92 1363.58 1068.14L1109.14 1302.7C1087.21 1322.91 1053.05 1321.52 1032.84 1299.59L904.297 1160.16Z" fill="#48BFE3"/>
<path d="M1768.3 878.159C1748.08 856.231 1749.47 822.069 1771.4 801.855L2025.84 567.297C2047.77 547.083 2081.93 548.472 2102.14 570.399L2230.68 709.834C2250.9 731.762 2249.51 765.924 2227.58 786.138L1973.14 1020.7C1951.21 1040.91 1917.05 1039.52 1896.84 1017.59L1768.3 878.159Z" fill="#48BFE3"/>
</g>
<defs>
<clipPath id="clip0">
<rect width="1920" height="1080" fill="white"/>
</clipPath>
</defs>
</svg>
